<svg viewBox="0 0 800 800" xmlns="http://www.w3.org/2000/svg" fill="white">
  <path d="M776.56 119.54c.36-21.35-7.38-41.04-21.77-55.44-7.81-7.81-20.48-7.81-28.29 0s-7.81 20.47 0 28.28c6.66 6.66 10.24 16.07 10.06 26.48-.17 9.94-3.93 19.53-10.06 25.67-12.73 12.73-139.57 124.09-238.64 210.73L463.59 331c72.32-82.75 162.07-185.06 197.17-223.91l7.99 7.99c7.81 7.81 20.48 7.81 28.28 0 7.81-7.81 7.81-20.47 0-28.28L674.35 64.11c-3.75-3.75-8.84-5.86-14.14-5.86h-.01c-5.3 0-10.39 2.11-14.14 5.86-12.17 12.17-86.62 96.73-153.79 173.38-18.07-27.34-42.19-50.87-70.9-68.92-41.95-26.39-90.86-39.77-145.36-39.77-11.99 0-23.85.76-35.26 2.25-10.95 1.43-18.67 11.47-17.24 22.43 1.43 10.95 11.47 18.67 22.43 17.24 9.69-1.27 19.81-1.91 30.07-1.91 82.99 0 152.61 37.21 188.71 100.15-33.69 38.5-62.63 71.65-76.59 87.65-24.92 3.4-43.51 13.59-56.62 31.08-12.19 16.26-17.53 35.67-23.19 56.23-6.82 24.79-13.87 50.42-33.98 70.53-5.72 5.72-7.43 14.32-4.34 21.8s10.39 12.35 18.48 12.35c53.83 0 96.49-11.47 126.8-34.1 27.32-20.39 43.6-49.34 47.45-84.11 51.53-45.01 273.57-239.05 292.05-257.53 17.95-17.95 25.89-37.37 26.23-57.74zM457.68 381.67c-6.01 5.25-11.84 10.34-17.44 15.23l-18.26-18.26c4.89-5.6 9.98-11.43 15.23-17.44l20.47 20.47zM391.36 482.41c-15.73 11.74-36.67 19.57-62.51 23.4 8.79-17.68 13.73-35.61 18.05-51.31 9.27-33.69 14.92-50.6 37.76-56.63l36.93 36.93c-30.22 10.15-40.34 26.13-56.23 38.1z"/>
  <path d="M178.31 189.96c2.91 0 5.87-.64 8.67-1.99 1.8-.87 3.64-1.72 5.48-2.53 10.11-4.46 14.68-16.27 10.22-26.37-4.46-10.1-16.27-14.68-26.37-10.22-2.25.99-4.5 2.03-6.7 3.09-9.95 4.8-14.13 16.75-9.33 26.7 3.1 5.3 10.24 9.47 17.68 9.47zM322.84 570.79c-11.04-.11-20.1 8.73-20.22 19.77-.86 76.89-12.47 111.19-78.96 111.19-37.28 0-76.4-27.27-107.33-74.81C82.22 574.51 63.43 506.44 63.43 435.27c0-92.39 27.9-169.27 78.56-216.47 8.08-7.53 8.53-20.19 1-28.27s-20.19-8.53-28.27-1c-29.84 27.8-52.93 63.92-68.63 107.36-15.04 41.63-22.67 88.18-22.67 138.37 0 78.82 21.08 154.64 59.36 213.48 38.45 59.1 89.79 93 140.86 93 48.84 0 82.88-17.19 101.18-51.08 15.71-29.1 17.42-66.7 17.79-99.66 0-10.82-8.85-19.88-19.89-20zM421.26 274.6c0-36.74-29.89-66.63-66.63-66.63s-66.63 29.89-66.63 66.63 29.89 66.63 66.63 66.63 66.63-29.89 66.63-66.63zm-93.27 0c0-14.69 11.95-26.63 26.63-26.63s26.63 11.95 26.63 26.63-11.95 26.63-26.63 26.63-26.63-11.95-26.63-26.63zM195.83 365.18c36.74 0 66.63-29.89 66.63-66.63s-29.89-66.63-66.63-66.63-66.63 29.89-66.63 66.63 29.89 66.63 66.63 66.63zm0-93.27c14.69 0 26.63 11.95 26.63 26.63s-11.95 26.63-26.63 26.63-26.63-11.95-26.63-26.63 11.95-26.63 26.63-26.63zM211.42 451.64c0-36.74-29.89-66.63-66.63-66.63s-66.63 29.89-66.63 66.63 29.89 66.63 66.63 66.63 66.63-29.89 66.63-66.63zm-66.63 26.63c-14.69 0-26.63-11.95-26.63-26.63s11.95-26.63 26.63-26.63 26.63 11.95 26.63 26.63-11.95 26.63-26.63 26.63zM214.79 674.18c36.74 0 66.63-29.89 66.63-66.63s-29.89-66.63-66.63-66.63-66.63 29.89-66.63 66.63 29.89 66.63 66.63 66.63zm0-93.27c14.69 0 26.63 11.95 26.63 26.63s-11.95 26.63-26.63 26.63-26.63-11.95-26.63-26.63 11.95-26.63 26.63-26.63z"/>
</svg>