<svg xmlns="http://www.w3.org/2000/svg" style="display: none;">

  <symbol id="icon-twitter" viewBox="0 0 24 24">
    <path d="M18.244 2.25h3.308l-7.227 8.26 8.502 11.24H16.17l-5.214-6.817L4.99 21.75H1.68l7.73-8.835L1.254 2.25H8.08l4.713 6.231zm-1.161 17.52h1.833L7.084 4.126H5.117z" />
  </symbol>
  
  <symbol id="icon-linkedin" viewBox="0 0 24 24">
    <path d="M19 0h-14c-2.761 0-5 2.239-5 5v14c0 2.761 2.239 5 5 5h14c2.762 0 5-2.239 5-5v-14c0-2.761-2.238-5-5-5zm-11 19h-3v-11h3v11zm-1.5-12.268c-.966 0-1.75-.79-1.75-1.764s.784-1.764 1.75-1.764 1.75.79 1.75 1.764-.783 1.764-1.75 1.764zm13.5 12.268h-3v-5.604c0-3.368-4-3.113-4 0v5.604h-3v-11h3v1.765c1.396-2.586 7-2.777 7 2.476v6.759z" />
  </symbol>
  
  <symbol id="icon-youtube" viewBox="0 0 24 24">
    <path d="M23.498 6.186a3.016 3.016 0 0 0-2.122-2.136C19.505 3.545 12 3.545 12 3.545s-7.505 0-9.377.505A3.017 3.017 0 0 0 .502 6.186C0 8.07 0 12 0 12s0 3.93.502 5.814a3.016 3.016 0 0 0 2.122 2.136c1.871.505 9.376.505 9.376.505s7.505 0 9.377-.505a3.015 3.015 0 0 0 2.122-2.136C24 15.93 24 12 24 12s0-3.93-.502-5.814zM9.545 15.568V8.432L15.818 12l-6.273 3.568z" />
  </symbol>
  
  <symbol id="icon-facebook" viewBox="0 0 24 24">
    <path d="M22 12c0-5.523-4.477-10-10-10S2 6.477 2 12c0 4.991 3.657 9.128 8.438 9.878V14.89h-2.54V12h2.54V9.797c0-2.506 1.492-3.89 3.777-3.89 1.094 0 2.238.195 2.238.195v2.46h-1.26c-1.243 0-1.63.771-1.63 1.562V12h2.773l-.443 2.89h-2.33v7.03C18.343 21.128 22 16.991 22 12z" />
  </symbol>
  
  <symbol id="icon-instagram" viewBox="0 0 448 512">
    <path d="M224.3 141a115 115 0 1 0-.6 230 115 115 0 1 0 .6-230zm-.6 40.4a74.6 74.6 0 1 1 .6 149.2 74.6 74.6 0 1 1 -.6-149.2zm93.4-45.1a26.8 26.8 0 1 1 53.6 0 26.8 26.8 0 1 1 -53.6 0zm129.7 27.2c-1.7-35.9-9.9-67.7-36.2-93.9-26.2-26.2-58-34.4-93.9-36.2-37-2.1-147.9-2.1-184.9 0-35.8 1.7-67.6 9.9-93.9 36.1s-34.4 58-36.2 93.9c-2.1 37-2.1 147.9 0 184.9 1.7 35.9 9.9 67.7 36.2 93.9s58 34.4 93.9 36.2c37 2.1 147.9 2.1 184.9 0 35.9-1.7 67.7-9.9 93.9-36.2 26.2-26.2 34.4-58 36.2-93.9 2.1-37 2.1-147.8 0-184.8zM399 388c-7.8 19.6-22.9 34.7-42.6 42.6-29.5 11.7-99.5 9-132.1 9s-102.7 2.6-132.1-9c-19.6-7.8-34.7-22.9-42.6-42.6-11.7-29.5-9-99.5-9-132.1s-2.6-102.7 9-132.1c7.8-19.6 22.9-34.7 42.6-42.6 29.5-11.7 99.5-9 132.1-9s102.7-2.6 132.1 9c19.6 7.8 34.7 22.9 42.6 42.6 11.7 29.5 9 99.5 9 132.1s2.7 102.7-9 132.1z" />
  </symbol>
  
  <symbol id="icon-itchio" viewBox="0 0 512 512">
    <path d="M71.92 34.77C50.2 47.67 7.4 96.84 7 109.73v21.34c0 27.06 25.29 50.84 48.25 50.84 27.57 0 50.54-22.85 50.54-50 0 27.12 22.18 50 49.76 50s49-22.85 49-50c0 27.12 23.59 50 51.16 50h.5c27.57 0 51.16-22.85 51.16-50 0 27.12 21.47 50 49 50s49.76-22.85 49.76-50c0 27.12 23 50 50.54 50 23 0 48.25-23.78 48.25-50.84v-21.34c-.4-12.9-43.2-62.07-64.92-75C372.56 32.4 325.76 32 256 32S91.14 33.1 71.92 34.77zm132.32 134.39c-22 38.4-77.9 38.71-99.85.25-13.17 23.14-43.17 32.07-56 27.66-3.87 40.15-13.67 237.13 17.73 269.15 80 18.67 302.08 18.12 379.76 0 31.65-32.27 21.32-232 17.75-269.15-12.92 4.44-42.88-4.6-56-27.66-22 38.52-77.85 38.1-99.85-.24-7.1 12.49-23.05 28.94-51.76 28.94a57.54 57.54 0 0 1-51.75-28.94zm-41.58 53.77c16.47 0 31.09 0 49.22 19.78a436.91 436.91 0 0 1 88.18 0C318.22 223 332.85 223 349.31 223c52.33 0 65.22 77.53 83.87 144.45 17.26 62.15-5.52 63.67-33.95 63.73-42.15-1.57-65.49-32.18-65.49-62.79-39.25 6.43-101.93 8.79-155.55 0 0 30.61-23.34 61.22-65.49 62.79-28.42-.06-51.2-1.58-33.94-63.73 18.67-67 31.56-144.45 83.88-144.45zM256 270.79s-44.38 40.77-52.35 55.21l29-1.17v25.32c0 1.55 21.34.16 23.33.16 11.65.54 23.31 1 23.31-.16v-25.28l29 1.17c-8-14.48-52.35-55.24-52.35-55.24z" />
  </symbol>
  
 <symbol id="icon-whatsapp" viewBox="0 0 16 16">
  <path d="M11.42 9.49c-.19-.09-1.1-.54-1.27-.61s-.29-.09-.42.1-.48.6-.59.73-.21.14-.4 0a5.13 5.13 0 0 1-1.49-.92 5.25 5.25 0 0 1-1-1.29c-.11-.18 0-.28.08-.38s.18-.21.28-.32a1.39 1.39 0 0 0 .18-.31.38.38 0 0 0 0-.33c0-.09-.42-1-.58-1.37s-.3-.32-.41-.32h-.4a.72.72 0 0 0-.5.23 2.1 2.1 0 0 0-.65 1.55A3.59 3.59 0 0 0 5 8.2 8.32 8.32 0 0 0 8.19 11c.44.19.78.3 1.05.39a2.53 2.53 0 0 0 1.17.07 1.93 1.93 0 0 0 1.26-.88 1.67 1.67 0 0 0 .11-.88c-.05-.07-.17-.12-.36-.21z" />
  
  <path d="M13.29 2.68A7.36 7.36 0 0 0 8 .5a7.44 7.44 0 0 0-6.41 11.15l-1 3.85 3.94-1a7.4 7.4 0 0 0 3.55.9H8a7.44 7.44 0 0 0 5.29-12.72zM8 14.12a6.12 6.12 0 0 1-3.15-.87l-.22-.13-2.34.61.62-2.28-.14-.23a6.18 6.18 0 0 1 9.6-7.65 6.12 6.12 0 0 1 1.81 4.37A6.19 6.19 0 0 1 8 14.12z" />
  </symbol>
</svg>