<svg viewBox="0 0 32 32" xmlns="http://www.w3.org/2000/svg" fill="white">
  <path d="M18.21 14.89c.74-.37.74-1.42 0-1.79L14 11l-2.11-4.21c-.18-.37-.54-.55-.89-.55s-.71.18-.89.55L8 11l-4.21 2.11c-.74.37-.74 1.42 0 1.79L8 17l2.11 4.21c.18.37.54.55.89.55s.71-.18.89-.55L14 17l4.21-2.11zM27.68 7.07L25 6l-1.07-2.68c-.17-.42-.55-.63-.93-.63s-.76.21-.93.63L21 6l-2.68 1.07c-.84.34-.84 1.52 0 1.86L21 10l1.07 2.68c.17.42.55.63.93.63s.76-.21.93-.63L25 10l2.68-1.07c.84-.34.84-1.52 0-1.86zM22.68 24.07L20 23l-1.07-2.68c-.17-.42-.55-.63-.93-.63s-.76.21-.93.63L16 23l-2.68 1.07c-.84.34-.84 1.52 0 1.86L16 27l1.07 2.68c.17.42.55.63.93.63s.76-.21.93-.63L20 27l2.68-1.07c.84-.34.84-1.52 0-1.86zM27.2 17.6L26 17l-.6-1.2c-.08-.17-.24-.25-.4-.25s-.32.08-.4.25L24 17l-1.2.6c-.33.17-.33.64 0 .81L24 19l.6 1.2c.08.17.24.25.4.25s.32-.08.4-.25L26 19l1.2-.6c.33-.17.33-.64 0-.81zM12.8 4.4L14 5l.6 1.2c.08.17.24.25.4.25s.32-.08.4-.25L16 5l1.2-.6c.33-.17.33-.64 0-.81L16 3l-.6-1.2c-.08-.17-.24-.25-.4-.25s-.32.08-.4.25L14 3l-1.2.6c-.33.17-.33.64 0 .81zM9.2 24.6L8 24l-.6-1.2c-.08-.17-.24-.25-.4-.25s-.32.08-.4.25L6 24l-1.2.6c-.33.17-.33.64 0 .81L6 26l.6 1.2c.08.17.24.25.4.25s.32-.08.4-.25L8 26l1.2-.6c.33-.17.33-.64 0-.81z"/>
</svg>